<svg xmlns="http://www.w3.org/2000/svg" width="26" height="26" viewBox="0 0 26 26">
  <path id="call_FILL1_wght400_GRAD0_opsz40_1_" data-name="call_FILL1_wght400_GRAD0_opsz40 (1)" d="M29.411,31a20.115,20.115,0,0,1-8.865-2.13,28.8,28.8,0,0,1-7.836-5.58,28.8,28.8,0,0,1-5.58-7.836A20.115,20.115,0,0,1,5,6.589,1.544,1.544,0,0,1,6.589,5H11.9a1.343,1.343,0,0,1,.9.343,1.37,1.37,0,0,1,.47.885l.975,4.73a2.607,2.607,0,0,1-.018.921,1.387,1.387,0,0,1-.38.7l-3.575,3.611a27.509,27.509,0,0,0,4.28,5.525,25.19,25.19,0,0,0,5.47,4.117l3.431-3.467a1.736,1.736,0,0,1,.812-.56,1.854,1.854,0,0,1,.993-.055l4.514.975a1.493,1.493,0,0,1,.885.523,1.462,1.462,0,0,1,.343.958v5.2A1.544,1.544,0,0,1,29.411,31Z" transform="translate(-5 -5)" fill="#fff"/>
</svg>
