<svg id="Component_13_1" data-name="Component 13 – 1" xmlns="http://www.w3.org/2000/svg" width="57.23" height="46.615" viewBox="0 0 57.23 46.615">
  <path id="Path_26" data-name="Path 26" d="M-969.2,4202.2c-1.6,3.8,3,5.6,3,5.6s20-9.6,22.6-28.6-13-18-13-18-9.6-.8-11.2,9.2c-.446,19.4,15.4,11.8,15.4,11.8S-952.4,4195.6-969.2,4202.2Z" transform="translate(1000.538 -4161.185)" fill="#73808e"/>
  <path id="Path_27" data-name="Path 27" d="M-969.2,4202.2c-1.6,3.8,3,5.6,3,5.6s20-9.6,22.6-28.6-13-18-13-18-9.6-.8-11.2,9.2c-.446,19.4,15.4,11.8,15.4,11.8S-952.4,4195.6-969.2,4202.2Z" transform="translate(969.538 -4161.185)" fill="#73808e"/>
</svg>
